<svg xmlns="http://www.w3.org/2000/svg" width="101" height="62" fill="none"><path fill="#161616" d="M0 21.407h100.53v40.104H0z"/><circle cx="34.516" cy="18.135" r="14.341" fill="url(#a)" opacity=".08"/><circle cx="34.714" cy="18.332" r="9.396" fill="url(#b)" opacity=".22"/><circle cx="34.615" cy="18.036" r="5.737" fill="url(#c)" opacity=".5"/><path stroke="#fff" stroke-width=".396" d="M34.12 26.047v-5.34"/><path fill="#F7FFB5" d="M34.22 21.003c-1.74-.08-2.176-1.747-2.176-2.572 0-.626.316-1.958 1.582-2.274 1.266-.317 2.176-1.187 2.473-1.583 0 .198.495.89.89 1.78.317.713.264 2.012.198 2.572-.264.725-1.226 2.156-2.967 2.077Z"/><path fill="#1F8C66" stroke="#1F8C66" stroke-width=".198" d="M35.209 25.879c7.754-.95 21.825-.326 27.693.07l-.989 2.502-16.022 2.077c-6.792-1.154-18.436-3.7-10.682-4.649Z"/><path fill="#0F5441" stroke="#0F5441" stroke-width=".198" d="M35.209 26.245c7.754-.95 21.43-.396 27.298 0l-.594 2.572-16.022 2.076c-6.792-1.153-18.436-3.698-10.682-4.648Z"/><path fill="#87E92C" stroke="#87E92C" stroke-linecap="round" stroke-width=".079" d="M41.3 25.154a.46.46 0 0 1-.165-.305c-.034-.33.368-.464.695-.417.69.056 2.144.164 2.428.146.285-.018.257.148.208.234-.152.065-.688.242-1.622.434-.933.193-1.419.019-1.545-.092Z"/><circle cx="39.858" cy="26.641" r="4.055" fill="#A5FF5A"/><path stroke="#87E92C" stroke-linecap="round" stroke-width=".198" d="M40.451 21.003c.33 0 .99.06.99.692 0 .45-.235.761-.453.938-.145.119-.337.15-.524.152-.782.01-2.008.056-2.288.196"/><path fill="#FEFFD8" d="M40.6 21.794a.148.148 0 0 0-.297 0h.297Zm-1.753.946-.042-.142.042.142Zm-3.044 3.703.146.024c.177-1.058.828-2.96 2.94-3.585l-.042-.142-.042-.142c-2.279.675-2.966 2.724-3.149 3.82l.147.025Zm4.49-3.857v.148h.357v-.296h-.358v.148Zm.356 0v.148a.626.626 0 0 0 .396-.167 1.14 1.14 0 0 0 .282-.375c.138-.29.178-.677-.067-.985l-.116.093-.116.093c.15.187.14.442.031.672a.85.85 0 0 1-.206.277c-.081.069-.153.096-.204.096v.148Zm.495-1.286.116-.093c-.244-.304-.608-.358-.922-.273-.309.085-.598.31-.717.608l.138.055.138.055c.078-.197.284-.367.52-.431.23-.063.459-.018.61.172l.117-.093Zm-1.385.297-.138-.055a.463.463 0 0 0 .04.448c.081.117.208.19.334.22.125.032.27.027.39-.038a.41.41 0 0 0 .215-.378h-.297c0 .072-.028.1-.058.117a.259.259 0 0 1-.178.012.278.278 0 0 1-.161-.102c-.027-.038-.041-.09-.01-.17l-.137-.054Zm-.912 1.143.042.142c.444-.131.917-.148 1.403-.148v-.296c-.487 0-.998.015-1.487.16l.042.142Z"/><path stroke="#F5FFEE" stroke-linecap="round" stroke-width=".593" d="M38.572 24.07a1.205 1.205 0 0 1 1.088-.693"/><circle cx="38.176" cy="24.564" r=".198" fill="#F5FFEE"/><path fill="#000" stroke="#000" stroke-width=".198" d="M42.33 24.662c.066 0 .138.04.197.13.06.089.1.218.1.365s-.04.276-.1.364c-.06.09-.131.13-.197.13s-.137-.04-.197-.13a.666.666 0 0 1-.1-.364c0-.147.04-.276.1-.365.06-.09.131-.13.197-.13Z"/><circle cx="48.393" cy="26.978" r="3.883" fill="#A5FF5A" transform="rotate(9.687 48.393 26.978)"/><path stroke="#87E92C" stroke-linecap="round" stroke-width=".189" d="M49.862 21.752c.312.053.924.216.822.813-.072.425-.343.68-.577.813-.157.088-.342.086-.52.058-.74-.117-1.904-.27-2.19-.183"/><path stroke="#FEFFD8" stroke-linecap="round" stroke-width=".284" d="M49.734 22.498c-.08.467-.888.137-.621-.298.266-.435 1.06-.587 1.354-.057.294.53-.3 1.198-.673 1.134l-.337-.058c-.46-.078-.927-.142-1.39-.087-2.176.26-3.126 2.016-3.47 3.005a3.13 3.13 0 0 0 0 1.492"/><path stroke="#F5FFEE" stroke-linecap="round" stroke-width=".568" d="M47.594 24.344c.13-.202.541-.58 1.138-.478"/><circle cx="47.141" cy="24.747" r=".189" fill="#F5FFEE" transform="rotate(9.687 47.141 24.747)"/><path stroke="#000" stroke-linecap="round" stroke-width=".379" d="M49.373 25.284c.316.032 1.004.228 1.232.758"/><path fill="#8AEE37" d="M56.67 27.63v-2.374l.495-.297-.099 2.67h-.395Z"/><circle cx="58.387" cy="22.044" r="3.638" fill="#A5FF5A" transform="rotate(-13.42 58.387 22.044)"/><path stroke="#A5FF5A" stroke-width=".396" d="M61.22 20.113c.08 0 .759.066 1.089.1l-.297 1.78-.297.395m-1.285 2.176 1.78.988-.099 1.583"/><path stroke="#87E92C" stroke-linecap="round" stroke-width=".177" d="M57.73 17.001c.289-.069.876-.154 1.008.398a1.07 1.07 0 0 1-.2.913c-.101.133-.262.2-.425.241-.68.171-1.74.467-1.955.648"/><path stroke="#FEFFD8" stroke-linecap="round" stroke-width=".266" d="M57.895 17.692c.103.431-.715.444-.645-.029.07-.473.698-.896 1.147-.547.448.35.18 1.143-.164 1.225l-.312.074c-.424.102-.85.218-1.228.436-1.78 1.024-1.953 2.887-1.886 3.864.084.761.875 1.948 1.963 2.442"/><path stroke="#F5FFEE" stroke-linecap="round" stroke-width=".532" d="M56.73 20.067c.038-.222.252-.699.805-.83"/><circle cx="56.487" cy="20.582" r=".177" fill="#F5FFEE" transform="rotate(-13.42 56.487 20.582)"/><path fill="#89E741" d="M56.474 25.158c5.618-.712 5.21-4.187 4.253-5.836 1.108.95 1.385 2.176 1.385 2.67-.066.99-.594 2.968-2.77 3.561-1.722.47-2.538-.132-2.868-.395Z"/><ellipse cx="61.023" cy="21.201" fill="#000" rx=".297" ry=".593"/><path fill="#186B52" stroke="#186B52" stroke-width=".198" d="M32.044 28.718c-1.504-1.345-1.946-3.198-1.979-3.956l4.352 1.879 16.814 2.077 11.275-1.484v-.989l1.88-.198.89.297c-.066.462-.673 1.88-3.363 3.857-3.363 2.473-9 3.166-15.034 3.264-4.826.08-8.67-1.088-9.99-1.681-.988-.462-3.342-1.721-4.846-3.066Z"/><path fill="#94EFBD" d="M66.067 24.662c-.95-.791-2.308-.066-2.67.396 0 .593-.89 1.285-1.78 1.582-.713.238-3.33.495-4.55.594-2.137.316-7.616.197-10.089.099-5.064-.08-8.242-.495-9.198-.693-3.066-.297-4.747-1.285-5.044-2.077-.297-.791-2.176-.395-2.572-.296-.395.098-.033.758 0 .989.792 1.345 4.649 2.571 6.43 2.868 1.878.297 6.067.81 10.978.89 6.033.099 13.051-.108 15.825-1.187 1.78-.692 2.571-2.176 2.67-3.165Z"/><circle cx="64.583" cy="24.465" r="1.681" fill="#94EFBD"/><circle cx="31.351" cy="24.266" r="1.681" fill="#94EFBD"/><path fill="#FEFFD8" d="m40.33 30.493 5.44-8.407c.396-.238.495.033.495.197l-2.176 3.561-2.67 4.747c-.264.462-.89 1.306-1.286.99-.396-.317-.033-.858.197-1.088Z"/><circle cx="46.088" cy="21.992" r=".593" fill="#FEFFD8"/><path fill="#87E92C" stroke="#87E92C" stroke-linecap="round" stroke-width=".079" d="M39.956 26.344a.46.46 0 0 1 .183-.295c.268-.194.585.087.708.394.296.626.93 1.938 1.088 2.176.158.237 0 .296-.1.296-.131-.099-.553-.474-1.186-1.187-.633-.712-.726-1.22-.693-1.384Z"/><path fill="#2F4238" d="m38.675 31.146-1.86 2.4c-.312 1.66 2.48 2.22 3.915 2.292.626-1.31.652-2.946.587-3.6-.066-.474-.392-1.441-1.174-1.529-.783-.087-1.305.255-1.468.437Z"/><path fill="#000" d="M39.066 29.212c3.086.158 17.44 2.407 21.562 3.066l-14.54 3.363-4.648-.198-.89.495-1.88-.297-1.384-.791-.593-1.088-1.88-1.88-2.967-3.066c1.121.066 4.134.238 7.22.396Z" opacity=".08"/><path fill="#161616" stroke="#161616" stroke-width=".396" d="M61.913 30.992H34.417c2.473 2.143 1.78 8.407 13.748 5.934 4.974-1.027 11.275-4.12 13.748-5.934Z" opacity=".37"/><path fill="#1E1E1E" d="M63.506 40.45c-.545-.29 1.317-.671 2.317-.826 3.952-.516 11.858 2.372 9.268 2.372s-7.36-.051-8.45 0c-1.09.052-3.135-.31-3.135-.67 0-.361.681-.516 0-.877Zm8.942 3.792c-.546-.289 1.317-.67 2.317-.825 3.952-.516 11.857 2.372 9.268 2.372-2.59 0-7.36-.051-8.45 0-1.091.052-3.135-.31-3.135-.67 0-.361.681-.516 0-.877ZM14.81 45.425c-.993-.321 2.402-.745 4.223-.917 7.202-.573 21.608 2.636 16.889 2.636-4.72 0-13.412-.058-15.399 0-1.987.057-5.712-.344-5.712-.745s1.242-.573 0-.974Z"/><path fill="#fff" d="m68.149 5.42.299 1.462 1.462.3-1.462.298-.299 1.463-.299-1.463-1.462-.299 1.462-.299.299-1.462Z"/><circle cx="52.569" cy=".271" r=".271" fill="#FEFFD8"/><circle cx="93.485" cy=".813" r=".271" fill="#FEFFD8"/><circle cx="7.858" cy="3.252" r=".271" fill="#FEFFD8"/><circle cx="86.439" cy="14.904" r=".271" fill="#FEFFD8"/><defs><linearGradient id="a" x1="34.516" x2="34.516" y1="3.794" y2="32.477" gradientUnits="userSpaceOnUse"><stop stop-color="#F7FFBD"/><stop offset="1" stop-color="#F7FFBD" stop-opacity="0"/></linearGradient><linearGradient id="b" x1="34.714" x2="34.714" y1="8.937" y2="27.729" gradientUnits="userSpaceOnUse"><stop stop-color="#F7FFBD"/><stop offset="1" stop-color="#F7FFBD" stop-opacity="0"/></linearGradient><radialGradient id="c" cx="0" cy="0" r="1" gradientTransform="rotate(90 8.29 26.326) scale(5.73651)" gradientUnits="userSpaceOnUse"><stop stop-color="#F7FFBD"/><stop offset="1" stop-color="#F7FFBD" stop-opacity="0"/></radialGradient></defs></svg>